<svg xmlns="http://www.w3.org/2000/svg" xmlns:xlink="http://www.w3.org/1999/xlink" width="500" zoomAndPan="magnify" viewBox="0 0 375 374.999991" height="500" preserveAspectRatio="xMidYMid meet" version="1.0"><defs><clipPath id="93139d5550"><path d="M 67 126.417969 L 312 126.417969 L 312 216 L 67 216 Z M 67 126.417969 " clip-rule="nonzero"/></clipPath></defs><g clip-path="url(#93139d5550)"><path fill="#8bc349" d="M 261.441406 204.015625 C 261.980469 200.597656 263.710938 190.859375 266.429688 186.894531 C 266.429688 186.894531 267.34375 190.648438 263.976562 204.507812 C 263.886719 204.878906 264.328125 205.144531 264.613281 204.886719 C 278.664062 192.105469 267.921875 177.777344 267.921875 177.777344 C 267.921875 177.777344 252.550781 186.957031 260.707031 204.121094 C 260.871094 204.464844 261.378906 204.390625 261.441406 204.015625 Z M 268.800781 209.363281 C 274.082031 206.40625 289.351562 198.25 297.746094 197.695312 C 297.746094 197.695312 293.570312 203.023438 270.871094 213.386719 C 270.261719 213.664062 270.378906 214.5625 271.039062 214.671875 C 303.820312 220.175781 311.894531 189.886719 311.894531 189.886719 C 311.894531 189.886719 282.632812 178.660156 267.863281 208.46875 C 267.570312 209.0625 268.21875 209.6875 268.800781 209.363281 Z M 118.527344 152.769531 C 126.679688 135.605469 111.308594 126.425781 111.308594 126.425781 C 111.308594 126.425781 100.570312 140.753906 114.621094 153.53125 C 114.902344 153.789062 115.347656 153.527344 115.257812 153.15625 C 111.886719 139.296875 112.804688 135.542969 112.804688 135.542969 C 115.519531 139.507812 117.25 149.246094 117.792969 152.660156 C 117.851562 153.035156 118.363281 153.113281 118.527344 152.769531 Z M 110.429688 158.007812 C 105.148438 155.058594 89.882812 146.894531 81.488281 146.34375 C 81.488281 146.34375 85.660156 151.667969 108.363281 162.03125 C 108.972656 162.308594 108.855469 163.207031 108.195312 163.316406 C 75.414062 168.824219 67.339844 138.53125 67.339844 138.53125 C 67.339844 138.53125 96.601562 127.308594 111.367188 157.117188 C 111.664062 157.714844 111.011719 158.332031 110.429688 158.007812 " fill-opacity="1" fill-rule="nonzero"/></g><path fill="#006837" d="M 212.34375 205.515625 L 212.34375 199.949219 C 212.34375 199.386719 211.886719 198.933594 211.324219 198.933594 L 205.761719 198.933594 C 205.199219 198.933594 204.742188 199.386719 204.742188 199.949219 L 204.742188 205.515625 C 204.742188 206.082031 205.199219 206.535156 205.761719 206.535156 L 211.324219 206.535156 C 211.886719 206.535156 212.34375 206.082031 212.34375 205.515625 Z M 201.933594 205.515625 L 201.933594 199.949219 C 201.933594 199.386719 201.480469 198.933594 200.917969 198.933594 L 195.355469 198.933594 C 194.792969 198.933594 194.335938 199.386719 194.335938 199.949219 L 194.335938 205.515625 C 194.335938 206.082031 194.792969 206.535156 195.355469 206.535156 L 200.917969 206.535156 C 201.480469 206.535156 201.933594 206.082031 201.933594 205.515625 Z M 212.34375 195.542969 L 212.34375 189.972656 C 212.34375 189.410156 211.886719 188.957031 211.324219 188.957031 L 205.761719 188.957031 C 205.199219 188.957031 204.742188 189.410156 204.742188 189.972656 L 204.742188 195.542969 C 204.742188 196.101562 205.199219 196.558594 205.761719 196.558594 L 211.324219 196.558594 C 211.886719 196.558594 212.34375 196.101562 212.34375 195.542969 Z M 201.933594 195.542969 L 201.933594 189.972656 C 201.933594 189.410156 201.480469 188.957031 200.917969 188.957031 L 195.355469 188.957031 C 194.792969 188.957031 194.335938 189.410156 194.335938 189.972656 L 194.335938 195.542969 C 194.335938 196.101562 194.792969 196.558594 195.355469 196.558594 L 200.917969 196.558594 C 201.480469 196.558594 201.933594 196.101562 201.933594 195.542969 Z M 136.722656 205.515625 L 136.722656 199.949219 C 136.722656 199.386719 136.265625 198.933594 135.703125 198.933594 L 130.140625 198.933594 C 129.578125 198.933594 129.125 199.386719 129.125 199.949219 L 129.125 205.515625 C 129.125 206.082031 129.578125 206.535156 130.140625 206.535156 L 135.703125 206.535156 C 136.265625 206.535156 136.722656 206.082031 136.722656 205.515625 Z M 126.316406 205.515625 L 126.316406 199.949219 C 126.316406 199.386719 125.859375 198.933594 125.296875 198.933594 L 119.734375 198.933594 C 119.171875 198.933594 118.71875 199.386719 118.71875 199.949219 L 118.71875 205.515625 C 118.71875 206.082031 119.171875 206.535156 119.734375 206.535156 L 125.296875 206.535156 C 125.859375 206.535156 126.316406 206.082031 126.316406 205.515625 Z M 136.722656 195.542969 L 136.722656 189.972656 C 136.722656 189.410156 136.265625 188.957031 135.703125 188.957031 L 130.140625 188.957031 C 129.578125 188.957031 129.125 189.410156 129.125 189.972656 L 129.125 195.542969 C 129.125 196.101562 129.578125 196.558594 130.140625 196.558594 L 135.703125 196.558594 C 136.265625 196.558594 136.722656 196.101562 136.722656 195.542969 Z M 126.316406 195.542969 L 126.316406 189.972656 C 126.316406 189.410156 125.859375 188.957031 125.296875 188.957031 L 119.734375 188.957031 C 119.171875 188.957031 118.71875 189.410156 118.71875 189.972656 L 118.71875 195.542969 C 118.71875 196.101562 119.171875 196.558594 119.734375 196.558594 L 125.296875 196.558594 C 125.859375 196.558594 126.316406 196.101562 126.316406 195.542969 Z M 204.53125 154.542969 L 265.675781 214.148438 C 267.316406 215.746094 266.183594 218.53125 263.890625 218.53125 L 251.589844 218.53125 C 250.925781 218.53125 250.289062 218.273438 249.8125 217.804688 L 204.53125 173.667969 C 203.535156 172.703125 201.957031 172.703125 200.964844 173.667969 L 176.921875 197.105469 C 175.890625 198.109375 175.890625 199.761719 176.921875 200.765625 L 190.644531 214.148438 C 192.289062 215.746094 191.15625 218.53125 188.863281 218.53125 L 176.5625 218.53125 C 175.898438 218.53125 175.257812 218.273438 174.78125 217.804688 L 165.234375 208.5 L 155.421875 198.9375 L 129.5 173.667969 C 128.507812 172.703125 126.929688 172.703125 125.9375 173.667969 L 80.65625 217.804688 C 80.179688 218.273438 79.539062 218.53125 78.875 218.53125 L 66.574219 218.53125 C 64.28125 218.53125 63.152344 215.746094 64.792969 214.148438 L 125.9375 154.542969 C 126.929688 153.574219 128.507812 153.574219 129.5 154.542969 L 163.453125 187.636719 C 164.441406 188.601562 166.023438 188.601562 167.015625 187.636719 L 200.964844 154.542969 C 201.957031 153.574219 203.535156 153.574219 204.53125 154.542969 " fill-opacity="1" fill-rule="nonzero"/></svg>