<svg xmlns="http://www.w3.org/2000/svg" xmlns:xlink="http://www.w3.org/1999/xlink" width="500" zoomAndPan="magnify" viewBox="0 0 375 374.999991" height="500" preserveAspectRatio="xMidYMid meet" version="1.0"><defs><clipPath id="f669236fd9"><path d="M 78.628906 78.628906 L 296.128906 78.628906 L 296.128906 296.128906 L 78.628906 296.128906 Z M 78.628906 78.628906 " clip-rule="nonzero"/></clipPath><clipPath id="75ca4efde4"><path d="M 114 105 L 296 105 L 296 296.128906 L 114 296.128906 Z M 114 105 " clip-rule="nonzero"/></clipPath></defs><g clip-path="url(#f669236fd9)"><path fill="#73bb65" d="M 296.125 187.382812 C 296.125 247.445312 247.4375 296.132812 187.375 296.132812 C 127.316406 296.132812 78.628906 247.445312 78.628906 187.382812 C 78.628906 127.320312 127.316406 78.632812 187.375 78.632812 C 247.4375 78.632812 296.125 127.320312 296.125 187.382812 " fill-opacity="1" fill-rule="nonzero"/></g><g clip-path="url(#75ca4efde4)"><path fill="#000000" d="M 184.996094 105.238281 C 163.824219 105.238281 146.667969 122.394531 146.667969 143.566406 C 146.667969 147.257812 148.390625 157.558594 152.113281 163.257812 C 152.113281 163.257812 166.09375 176.050781 184.960938 192.894531 C 168.40625 193.019531 150.410156 193.09375 136.726562 202.089844 C 126.996094 208.492188 119.652344 219.773438 117.390625 231.199219 C 115.601562 240.234375 108.457031 251.359375 122.753906 258.296875 C 128.597656 261.132812 148.363281 277.105469 171.027344 294.902344 C 176.363281 295.707031 181.816406 296.132812 187.375 296.132812 C 245.089844 296.132812 292.277344 251.164062 295.875 194.355469 C 254.75 154.71875 202.828125 109.625 202.828125 109.625 C 197.492188 106.628906 188.230469 105.238281 184.992188 105.238281 Z M 184.996094 105.238281 " fill-opacity="0.196" fill-rule="nonzero"/></g><path fill="#ffffff" d="M 223.332031 143.429688 C 223.332031 144.683594 223.269531 145.9375 223.148438 147.1875 C 223.023438 148.4375 222.839844 149.675781 222.59375 150.910156 C 222.351562 152.140625 222.046875 153.355469 221.679688 154.558594 C 221.316406 155.757812 220.894531 156.941406 220.414062 158.097656 C 219.933594 159.257812 219.398438 160.394531 218.804688 161.5 C 218.214844 162.609375 217.570312 163.683594 216.871094 164.726562 C 216.175781 165.769531 215.425781 166.777344 214.628906 167.75 C 213.835938 168.71875 212.992188 169.648438 212.105469 170.535156 C 211.214844 171.421875 210.289062 172.265625 209.316406 173.0625 C 208.347656 173.859375 207.339844 174.605469 206.296875 175.304688 C 205.25 176 204.175781 176.644531 203.070312 177.238281 C 201.960938 177.828125 200.828125 178.367188 199.667969 178.84375 C 198.507812 179.328125 197.328125 179.75 196.125 180.113281 C 194.925781 180.476562 193.707031 180.78125 192.476562 181.027344 C 191.246094 181.273438 190.003906 181.457031 188.753906 181.578125 C 187.507812 181.703125 186.253906 181.765625 184.996094 181.765625 C 183.742188 181.765625 182.488281 181.703125 181.242188 181.578125 C 179.992188 181.457031 178.75 181.273438 177.519531 181.027344 C 176.289062 180.78125 175.070312 180.476562 173.871094 180.113281 C 172.667969 179.75 171.488281 179.328125 170.328125 178.84375 C 169.167969 178.367188 168.035156 177.828125 166.925781 177.238281 C 165.820312 176.644531 164.746094 176 163.699219 175.304688 C 162.65625 174.605469 161.648438 173.859375 160.679688 173.0625 C 159.707031 172.265625 158.78125 171.421875 157.890625 170.535156 C 157.003906 169.648438 156.160156 168.71875 155.367188 167.75 C 154.570312 166.777344 153.820312 165.769531 153.125 164.726562 C 152.425781 163.683594 151.78125 162.609375 151.191406 161.5 C 150.597656 160.394531 150.0625 159.257812 149.582031 158.097656 C 149.101562 156.9375 148.679688 155.757812 148.316406 154.558594 C 147.949219 153.355469 147.644531 152.140625 147.402344 150.90625 C 147.15625 149.675781 146.972656 148.4375 146.847656 147.1875 C 146.726562 145.9375 146.664062 144.683594 146.664062 143.429688 C 146.664062 142.175781 146.726562 140.921875 146.847656 139.671875 C 146.972656 138.421875 147.15625 137.183594 147.402344 135.949219 C 147.644531 134.71875 147.949219 133.503906 148.316406 132.300781 C 148.679688 131.101562 149.101562 129.917969 149.582031 128.757812 C 150.0625 127.597656 150.597656 126.464844 151.191406 125.359375 C 151.78125 124.25 152.425781 123.175781 153.125 122.132812 C 153.820312 121.085938 154.570312 120.082031 155.367188 119.109375 C 156.160156 118.140625 157.003906 117.210938 157.890625 116.324219 C 158.78125 115.433594 159.707031 114.59375 160.679688 113.796875 C 161.648438 113 162.65625 112.253906 163.699219 111.554688 C 164.746094 110.859375 165.820312 110.214844 166.925781 109.621094 C 168.035156 109.03125 169.167969 108.492188 170.328125 108.011719 C 171.488281 107.53125 172.667969 107.109375 173.871094 106.746094 C 175.070312 106.382812 176.289062 106.078125 177.519531 105.832031 C 178.75 105.585938 179.992188 105.402344 181.242188 105.28125 C 182.488281 105.15625 183.742188 105.097656 184.996094 105.09375 C 186.253906 105.097656 187.507812 105.15625 188.753906 105.28125 C 190.003906 105.402344 191.246094 105.585938 192.476562 105.832031 C 193.707031 106.078125 194.925781 106.382812 196.125 106.746094 C 197.328125 107.109375 198.507812 107.53125 199.667969 108.011719 C 200.828125 108.492188 201.960938 109.03125 203.070312 109.621094 C 204.175781 110.214844 205.25 110.859375 206.296875 111.554688 C 207.339844 112.253906 208.347656 113 209.316406 113.796875 C 210.289062 114.59375 211.214844 115.433594 212.105469 116.324219 C 212.992188 117.210938 213.835938 118.140625 214.628906 119.109375 C 215.425781 120.082031 216.175781 121.089844 216.871094 122.132812 C 217.570312 123.175781 218.214844 124.25 218.804688 125.359375 C 219.398438 126.464844 219.933594 127.597656 220.414062 128.757812 C 220.894531 129.917969 221.316406 131.101562 221.679688 132.300781 C 222.046875 133.503906 222.351562 134.71875 222.59375 135.949219 C 222.839844 137.183594 223.023438 138.421875 223.148438 139.671875 C 223.269531 140.921875 223.332031 142.175781 223.332031 143.429688 Z M 223.332031 143.429688 " fill-opacity="1" fill-rule="nonzero"/><path fill="#ffffff" d="M 258.085938 230.882812 C 259.535156 240.015625 265.792969 250.941406 251.804688 257.90625 C 237.816406 264.871094 209.667969 269.21875 187.738281 269.21875 C 165.808594 269.21875 137.046875 264.925781 122.75 257.988281 C 108.457031 251.046875 115.601562 239.917969 117.390625 230.882812 C 119.652344 219.457031 126.996094 208.179688 136.726562 201.78125 C 151.164062 192.285156 170.457031 192.710938 187.738281 192.546875 C 205.394531 192.378906 225.398438 191.109375 240.03125 200.988281 C 249.679688 207.5 256.261719 219.386719 258.085938 230.882812 Z M 258.085938 230.882812 " fill-opacity="1" fill-rule="nonzero"/><path fill="#f8feff" d="M 187.375 268.492188 L 172.117188 246.851562 L 187.375 210.339844 L 202.636719 246.851562 Z M 187.375 214.277344 L 172.117188 192.636719 L 202.636719 192.636719 Z M 187.375 214.277344 " fill-opacity="1" fill-rule="nonzero"/></svg>